<mxfile host="65bd71144e">
    <diagram id="2zkEGO3rW1cz5mAxiEJj" name="Page-1">
        <mxGraphModel dx="1776" dy="1698" grid="1" gridSize="10" guides="1" tooltips="1" connect="1" arrows="1" fold="1" page="1" pageScale="1" pageWidth="827" pageHeight="1169" math="0" shadow="0">
            <root>
                <mxCell id="0"/>
                <mxCell id="1" parent="0"/>
                <mxCell id="2" value="Register as Authenticated User who can:" style="shape=ext;double=1;rounded=1;whiteSpace=wrap;html=1;" parent="1" vertex="1">
                    <mxGeometry x="-550" y="-880" width="125" height="90" as="geometry"/>
                </mxCell>
                <mxCell id="11" style="edgeStyle=none;html=1;exitX=0;exitY=0.5;exitDx=0;exitDy=0;entryX=0.5;entryY=1;entryDx=0;entryDy=0;" parent="1" source="2" target="6" edge="1">
                    <mxGeometry relative="1" as="geometry">
                        <mxPoint y="180" as="sourcePoint"/>
                        <Array as="points">
                            <mxPoint x="-700" y="-835"/>
                        </Array>
                    </mxGeometry>
                </mxCell>
                <mxCell id="9" style="edgeStyle=none;html=1;entryX=0.392;entryY=0;entryDx=0;entryDy=0;entryPerimeter=0;" parent="1" target="2" edge="1">
                    <mxGeometry relative="1" as="geometry">
                        <Array as="points">
                            <mxPoint x="-501" y="-920"/>
                        </Array>
                        <mxPoint x="-501" y="-970" as="sourcePoint"/>
                    </mxGeometry>
                </mxCell>
                <mxCell id="5" value="Unregistered User can:" style="shape=ext;double=1;rounded=1;whiteSpace=wrap;html=1;" parent="1" vertex="1">
                    <mxGeometry x="-570" y="-1060" width="130" height="90" as="geometry"/>
                </mxCell>
                <mxCell id="6" value="Gallery of Cakes on Landing page" style="shape=ext;double=1;rounded=1;whiteSpace=wrap;html=1;" parent="1" vertex="1">
                    <mxGeometry x="-760" y="-960" width="120" height="80" as="geometry"/>
                </mxCell>
                <mxCell id="12" value="Posts" style="shape=ext;double=1;rounded=1;whiteSpace=wrap;html=1;" parent="1" vertex="1">
                    <mxGeometry x="-170" y="-1060" width="160" height="90" as="geometry"/>
                </mxCell>
                <mxCell id="19" value="Profile is automatically created" style="shape=ext;double=1;rounded=1;whiteSpace=wrap;html=1;" parent="1" vertex="1">
                    <mxGeometry x="-210" y="-750" width="150" height="110" as="geometry"/>
                </mxCell>
                <mxCell id="37" value="Read posts and comments" style="text;strokeColor=none;align=center;fillColor=none;html=1;verticalAlign=middle;whiteSpace=wrap;rounded=0;rotation=0;" parent="1" vertex="1">
                    <mxGeometry x="-413" y="-1040" width="220" height="30" as="geometry"/>
                </mxCell>
                <mxCell id="39" value="" style="endArrow=classic;html=1;entryX=0;entryY=0.5;entryDx=0;entryDy=0;exitX=1;exitY=0.5;exitDx=0;exitDy=0;" parent="1" source="5" target="12" edge="1">
                    <mxGeometry width="50" height="50" relative="1" as="geometry">
                        <mxPoint x="-30" y="-130" as="sourcePoint"/>
                        <mxPoint x="20" y="-180" as="targetPoint"/>
                    </mxGeometry>
                </mxCell>
                <mxCell id="43" value="" style="endArrow=classic;html=1;exitX=1;exitY=0.5;exitDx=0;exitDy=0;entryX=0.619;entryY=1.022;entryDx=0;entryDy=0;entryPerimeter=0;" parent="1" source="2" target="12" edge="1">
                    <mxGeometry width="50" height="50" relative="1" as="geometry">
                        <mxPoint x="-30" y="-230" as="sourcePoint"/>
                        <mxPoint x="20" y="-280" as="targetPoint"/>
                        <Array as="points">
                            <mxPoint x="-71" y="-835"/>
                        </Array>
                    </mxGeometry>
                </mxCell>
                <mxCell id="44" value="Create Posts, comment on posts, delete own posts.&amp;nbsp;" style="text;strokeColor=none;align=center;fillColor=none;html=1;verticalAlign=middle;whiteSpace=wrap;rounded=0;rotation=0;" parent="1" vertex="1">
                    <mxGeometry x="-400" y="-860" width="300" height="30" as="geometry"/>
                </mxCell>
                <mxCell id="45" value="&lt;font style=&quot;font-size: 24px;&quot;&gt;&lt;u&gt;&lt;b&gt;Basic layout of functionality&lt;/b&gt;&lt;/u&gt;&lt;/font&gt;" style="text;strokeColor=none;align=center;fillColor=none;html=1;verticalAlign=middle;whiteSpace=wrap;rounded=0;" parent="1" vertex="1">
                    <mxGeometry x="-570" y="-1140" width="360" height="60" as="geometry"/>
                </mxCell>
                <mxCell id="48" value="" style="endArrow=classic;html=1;entryX=0.5;entryY=0;entryDx=0;entryDy=0;exitX=0;exitY=0.5;exitDx=0;exitDy=0;" edge="1" parent="1" source="5" target="6">
                    <mxGeometry width="50" height="50" relative="1" as="geometry">
                        <mxPoint x="-300" y="-760" as="sourcePoint"/>
                        <mxPoint x="-250" y="-810" as="targetPoint"/>
                        <Array as="points">
                            <mxPoint x="-700" y="-1015"/>
                        </Array>
                    </mxGeometry>
                </mxCell>
                <mxCell id="49" value="&lt;font style=&quot;font-size: 12px;&quot;&gt;View&lt;/font&gt;" style="text;strokeColor=none;align=center;fillColor=none;html=1;verticalAlign=middle;whiteSpace=wrap;rounded=0;fontSize=24;" vertex="1" parent="1">
                    <mxGeometry x="-680" y="-1040" width="60" height="30" as="geometry"/>
                </mxCell>
                <mxCell id="50" value="View" style="text;strokeColor=none;align=center;fillColor=none;html=1;verticalAlign=middle;whiteSpace=wrap;rounded=0;fontSize=12;" vertex="1" parent="1">
                    <mxGeometry x="-670" y="-860" width="60" height="30" as="geometry"/>
                </mxCell>
                <mxCell id="51" value="" style="endArrow=classic;html=1;fontSize=12;exitX=0.4;exitY=1.022;exitDx=0;exitDy=0;entryX=0;entryY=0.5;entryDx=0;entryDy=0;exitPerimeter=0;" edge="1" parent="1" source="2" target="19">
                    <mxGeometry width="50" height="50" relative="1" as="geometry">
                        <mxPoint x="-300" y="-770" as="sourcePoint"/>
                        <mxPoint x="-230" y="-700" as="targetPoint"/>
                        <Array as="points">
                            <mxPoint x="-510" y="-690"/>
                        </Array>
                    </mxGeometry>
                </mxCell>
                <mxCell id="52" value="Update and delete their own profiles" style="text;strokeColor=none;align=center;fillColor=none;html=1;verticalAlign=middle;whiteSpace=wrap;rounded=0;fontSize=12;" vertex="1" parent="1">
                    <mxGeometry x="-490" y="-720" width="240" height="30" as="geometry"/>
                </mxCell>
            </root>
        </mxGraphModel>
    </diagram>
</mxfile>